<svg width="41" height="24" viewBox="0 0 41 24" fill="none" xmlns="http://www.w3.org/2000/svg">
<path d="M17.5078 24.0002L23.0158 0.240234H31.8358C34.6198 0.240234 36.7918 0.876234 38.3518 2.14823C39.9118 3.39623 40.6918 5.12423 40.6918 7.33223C40.6918 9.06023 40.2838 10.5962 39.4678 11.9402C38.6518 13.2602 37.4878 14.3042 35.9758 15.0722C34.4638 15.8402 32.6758 16.2242 30.6118 16.2242H22.5838L23.6638 11.5802H30.4318C31.3438 11.5802 32.0998 11.4122 32.6998 11.0762C33.3238 10.7162 33.7918 10.2482 34.1038 9.67223C34.4158 9.09623 34.5718 8.47223 34.5718 7.80023C34.5718 6.91223 34.2958 6.20423 33.7438 5.67624C33.1918 5.14823 32.3158 4.88423 31.1158 4.88423H28.0918L23.6998 24.0002H17.5078Z" fill="#C9C9C9"/>
<path d="M7.85181 19.2122H19.4798L18.3278 24.0002H0.507812L6.01581 0.240234H12.2078L7.85181 19.2122Z" fill="black"/>
<path d="M12.8828 24.0002L18.3908 0.240234H25.0148L29.1188 13.3082L30.1628 17.1962H30.1988L31.2068 12.2282L33.9788 0.240234H39.4148L33.9068 24.0002H27.3908L23.1428 11.1482L22.0628 7.26023H21.9908L21.0908 12.0122L18.3548 24.0002H12.8828Z" fill="black"/>
<path d="M25.0038 11.5354H31.3053L30.3365 16.2317H26.5038L25.0038 11.5354Z" fill="#C9C9C9"/>
</svg>
